<?xml version="1.0" ?><svg id="social_x5F_emoji_x5F_confused" style="enable-background:new 0 0 32 32;" version="1.1" viewBox="0 0 32 32" xml:space="preserve" xmlns="http://www.w3.org/2000/svg" xmlns:xlink="http://www.w3.org/1999/xlink"><g><g><g><path d="M16,32C7.178,32,0,24.822,0,16c0-2.084,0.402-4.123,1.194-6.059     c0.211-0.511,0.797-0.755,1.305-0.547c0.511,0.21,0.756,0.794,0.547,1.305C2.352,12.394,2,14.177,2,16c0,7.72,6.28,14,14,14     s14-6.28,14-14S23.72,2,16,2c-3.455,0-6.78,1.284-9.363,3.615C6.228,5.984,5.595,5.954,5.225,5.543     c-0.37-0.41-0.338-1.042,0.072-1.412C8.248,1.467,12.049,0,16,0c8.822,0,16,7.178,16,16S24.822,32,16,32z" /></g><g><path d="M4,12c-0.915,0-1.783-0.312-2.511-0.903c-0.429-0.349-0.493-0.979-0.146-1.407     c0.35-0.428,0.979-0.492,1.407-0.146C3.007,9.752,3.431,10,4,10c1.103,0,2-0.897,2-2c0-0.147-0.068-0.78-0.944-2.714     C4.828,4.782,5.051,4.19,5.554,3.962C6.061,3.733,6.649,3.957,6.878,4.46C7.884,6.682,8,7.544,8,8C8,10.206,6.206,12,4,12z" /></g><g><path d="M2.119,11.32c-0.221,0-0.443-0.073-0.629-0.224C0.543,10.329,0,9.2,0,8     c0-1.826,2.605-6.56,3.128-7.489C3.305,0.195,3.639,0,4,0l0,0c0.362,0,0.695,0.195,0.872,0.511     c0.046,0.082,1.13,2.019,2.006,3.949C7.105,4.963,6.883,5.556,6.38,5.784C5.877,6.012,5.284,5.788,5.056,5.286     C4.714,4.53,4.331,3.763,3.998,3.116C2.928,5.192,2,7.32,2,8c0,0.595,0.273,1.157,0.75,1.544     c0.429,0.348,0.495,0.978,0.146,1.406C2.699,11.194,2.41,11.32,2.119,11.32z" /></g></g><g><path d="M24,15.829c-0.256,0-0.512-0.098-0.707-0.293c-0.713-0.713-1.873-0.713-2.586,0    c-0.391,0.391-1.023,0.391-1.414,0s-0.391-1.023,0-1.414c1.492-1.492,3.922-1.492,5.414,0c0.391,0.391,0.391,1.023,0,1.414    C24.512,15.731,24.256,15.829,24,15.829z" /></g><g><path d="M20,24.125c-0.256,0-0.512-0.098-0.707-0.293c-1.816-1.816-4.77-1.816-6.586,0    c-0.391,0.391-1.023,0.391-1.414,0s-0.391-1.023,0-1.414c1.258-1.258,2.93-1.951,4.707-1.951s3.449,0.693,4.707,1.951    c0.391,0.391,0.391,1.023,0,1.414C20.512,24.027,20.256,24.125,20,24.125z" /></g><g><path d="M12,15.829c-0.256,0-0.512-0.098-0.707-0.293c-0.713-0.713-1.873-0.713-2.586,0    c-0.391,0.391-1.023,0.391-1.414,0s-0.391-1.023,0-1.414c1.492-1.492,3.922-1.492,5.414,0c0.391,0.391,0.391,1.023,0,1.414    C12.512,15.731,12.256,15.829,12,15.829z" /></g></g></svg>