<svg height="512pt" viewBox="0 0 512 512" width="512pt" xmlns="http://www.w3.org/2000/svg"><path d="m340.136719 225.667969c30.695312 0 55.667969-24.972657 55.667969-55.667969h-30c0 14.152344-11.515626 25.667969-25.667969 25.667969-14.152344 0-25.667969-11.515625-25.667969-25.667969h-30c0 30.695312 24.972656 55.667969 55.667969 55.667969zm0 0"/><path d="m227.53125 170h-30c0 14.152344-11.515625 25.667969-25.667969 25.667969-14.152343 0-25.667969-11.515625-25.667969-25.667969h-30c0 30.695312 24.972657 55.667969 55.667969 55.667969 30.695313 0 55.667969-24.972657 55.667969-55.667969zm0 0"/><path d="m437.019531 74.980469c-48.351562-48.351563-112.640625-74.980469-181.019531-74.980469s-132.667969 26.628906-181.019531 74.980469c-48.351563 48.351562-74.980469 112.640625-74.980469 181.019531s26.628906 132.667969 74.980469 181.019531c48.351562 48.351563 112.640625 74.980469 181.019531 74.980469s132.667969-26.628906 181.019531-74.980469c48.351563-48.351562 74.980469-112.640625 74.980469-181.019531s-26.628906-132.667969-74.980469-181.019531zm-407.019531 181.019531c0-124.617188 101.382812-226 226-226s226 101.382812 226 226c0 28.871094-5.449219 56.492188-15.363281 81.898438-6.152344-14.800782-17.09375-31.695313-33.007813-51.007813-18.179687-22.058594-36.113281-38.925781-36.867187-39.632813l-10.257813-9.613281-10.257812 9.613281c-.753906.707032-18.6875 17.574219-36.867188 39.632813-10.304687 12.503906-18.519531 23.992187-24.707031 34.558594-17.332031-10.367188-37.484375-16.203125-58.671875-16.203125-48.964844 0-92.457031 31.125-108.21875 77.457031l28.398438 9.664063c11.625-34.167969 43.703124-57.121094 79.820312-57.121094 16.957031 0 33.015625 5.070312 46.488281 13.976562-1.382812 5.25-2.082031 10.210938-2.082031 14.886719 0 42.949219 31.613281 78.648437 72.789062 85.066406-34.191406 20.820313-74.316406 32.824219-117.195312 32.824219-124.617188 0-226-101.382812-226-226zm356.503906 164.207031c-30.933594 0-56.097656-25.167969-56.097656-56.097656 0-20.832031 31.128906-59.441406 56.097656-84.90625 24.96875 25.464844 56.097656 64.074219 56.097656 84.90625 0 30.929687-25.167968 56.097656-56.097656 56.097656zm0 0"/></svg>