<svg id="Layer_5" enable-background="new 0 0 64 64" height="512" viewBox="0 0 64 64" width="512" xmlns="http://www.w3.org/2000/svg"><path d="m55.304 41.509c1.638-1.283 2.696-3.272 2.696-5.509 0-3.86-3.14-7-7-7-2.576 0-4.825 1.402-6.04 3.479l-5.048 1.262c-.349-1.565-1.744-2.741-3.412-2.741-1.93 0-3.5 1.57-3.5 3.5v.5h-6c-1.654 0-3-1.346-3-3s1.346-3 3-3h12c2.757 0 5-2.243 5-5v-4c0-1.654 1.346-3 3-3h11c2.757 0 5-2.243 5-5s-2.243-5-5-5h-27v-.5c0-1.93-1.57-3.5-3.5-3.5-1.668 0-3.063 1.176-3.412 2.741l-5.048-1.262c-1.215-2.077-3.464-3.479-6.04-3.479-3.86 0-7 3.14-7 7 0 2.237 1.058 4.226 2.696 5.509-4.456 1.406-7.696 5.577-7.696 10.491v7c0 2.206 1.794 4 4 4h1v14c0 2.206 1.794 4 4 4 1.2 0 2.266-.542 3-1.382.734.84 1.8 1.382 3 1.382 2.206 0 4-1.794 4-4v-25.914c0-.726.518-1.346 1.231-1.476l4.021-.731c3.331-.605 5.748-3.502 5.748-6.886v-4.993h27c1.654 0 3 1.346 3 3s-1.346 3-3 3h-11c-2.757 0-5 2.243-5 5v4c0 1.654-1.346 3-3 3h-12c-2.757 0-5 2.243-5 5s2.243 5 5 5h6v4.993c0 3.385 2.417 6.281 5.748 6.887l4.021.731c.713.129 1.231.75 1.231 1.475v11.914h19v-11c0-4.914-3.24-9.085-7.696-10.491zm-41.357-21.87-.947.947-.947-.947.58-4.639h.367.367zm5.093-8.118 4.96-1.24v1.219c0 .827-.673 1.5-1.5 1.5h-4.61c.447-.438.832-.936 1.15-1.479zm4.96-3.74v.438l-4.118 1.03c.074-.406.118-.822.118-1.249s-.044-.843-.118-1.249zm-16 .219c0-2.757 2.243-5 5-5s5 2.243 5 5-2.243 5-5 5-5-2.243-5-5zm21 5.993c0 2.417-1.727 4.487-4.105 4.919l-4.021.731c-1.666.302-2.874 1.751-2.874 3.443v25.914c0 1.103-.897 2-2 2s-2-.897-2-2v-18h-2v18c0 1.103-.897 2-2 2s-2-.897-2-2v-27h-2v11h-1c-1.103 0-2-.897-2-2v-7c0-4.486 3.303-8.205 7.602-8.88l-.655 5.241 3.053 3.053 3.053-3.053-.67-5.361h7.117c1.93 0 3.5-1.57 3.5-3.5v-5c0-.827.673-1.5 1.5-1.5s1.5.673 1.5 1.5zm22 17.007c2.757 0 5 2.243 5 5s-2.243 5-5 5-5-2.243-5-5 2.243-5 5-5zm-11 7.281 4.96 1.24c.318.543.703 1.042 1.151 1.479h-4.611c-.827 0-1.5-.673-1.5-1.5zm4.118-1.032-4.118-1.03v-.438l4.118-1.03c-.074.406-.118.822-.118 1.249s.044.843.118 1.249zm16.882 23.751h-3v-13h-2v13h-10v-9.914c0-1.693-1.208-3.141-2.874-3.443l-4.02-.731c-2.379-.433-4.106-2.502-4.106-4.919v-7.493c0-.827.673-1.5 1.5-1.5s1.5.673 1.5 1.5v5c0 1.93 1.57 3.5 3.5 3.5h10.5c4.962 0 9 4.038 9 9z"/></svg>