<?xml version="1.0" encoding="iso-8859-1"?>
<!-- Generator: Adobe Illustrator 19.0.0, SVG Export Plug-In . SVG Version: 6.00 Build 0)  -->
<svg version="1.1" id="Capa_1" xmlns="http://www.w3.org/2000/svg" xmlns:xlink="http://www.w3.org/1999/xlink" x="0px" y="0px"
	 viewBox="0 0 480.151 480.151" style="enable-background:new 0 0 480.151 480.151;" xml:space="preserve">
<g>
	<g>
		<path d="M348.075,292.431c-4.418,0-8,3.582-8,8v171.72c0,4.418,3.582,8,8,8s8-3.582,8-8v-171.72
			C356.075,296.012,352.494,292.431,348.075,292.431z"/>
	</g>
</g>
<g>
	<g>
		<path d="M305.219,114.506c-3.046-2.766-7.692-2.77-10.743-0.011l-29.68,29.656h-28.984c-4.418,0-8,3.582-8,8s3.582,8,8,8h60.176
			c4.418,0,8-3.582,8-8s-3.582-8-8-8h-8.568l18.344-18.344C308.733,122.536,308.49,117.476,305.219,114.506z"/>
	</g>
</g>
<g>
	<g>
		<path d="M393.987,259.351c-9.757-24.534-26.746-45.519-48.712-60.168l-25.064-16.632c43.381-37.645,48.032-103.33,10.387-146.711
			s-103.33-48.032-146.711-10.387s-48.032,103.33-10.387,146.711c6.426,7.406,13.868,13.865,22.103,19.187l-10.888,7.72
			c-43.044,30.613-78.618,70.553-104.064,116.84c-2.99,5.44-4.563,11.545-4.576,17.752v5.872
			c-0.025,9.706,3.801,19.025,10.64,25.912c6.793,6.836,16.027,10.687,25.664,10.704h35.696v96c0,4.418,3.582,8,8,8s8-3.582,8-8v-96
			h72.104c17.483,0.057,31.702-14.07,31.759-31.553c0.006-1.695-0.125-3.389-0.391-5.063l11.264-14.896
			c24.534-32.153,43.663-68.091,56.632-106.4c0.656-1.976,1.2-3.656,1.688-5.2c18.944,12.831,33.598,31.056,42.064,52.312
			c5.899,14.617,8.915,30.237,8.88,46v160.8c0,4.418,3.582,8,8,8s8-3.582,8-8v-160.8
			C404.105,293.528,400.679,275.869,393.987,259.351z M112.379,360.151c-5.355-0.014-10.485-2.158-14.256-5.96
			c-3.881-3.889-6.057-9.162-6.048-14.656v-5.872c-0.001-3.512,0.883-6.967,2.568-10.048c14.95-27.166,33.597-52.127,55.408-74.168
			l7.416,62.704h-25.392c-4.418,0-8,3.582-8,8s3.582,8,8,8h27.2l3.76,32H112.379z M288.075,23.911l-53.512,22.52l-31.104-15.552
			C228.571,14.107,260.558,11.473,288.075,23.911z M189.883,41.983l25.256,12.632l-45.52,19.136
			C174.007,61.825,180.919,50.989,189.883,41.983z M164.875,93.143l140.256-59.056c4.794,3.63,9.207,7.739,13.168,12.264
			l-151.424,79.32C164.066,115.067,163.386,104.011,164.875,93.143z M176.305,148.669c-1.475-2.504-2.825-5.08-4.045-7.719
			l155.512-81.504c24.638,41.826,10.704,95.706-31.122,120.345C254.823,204.429,200.943,190.496,176.305,148.669z M179.219,360.151
			l-14.648-124.544c5.92-5.312,12.08-10.32,18.36-15.2l34.928,139.744H179.219z M247.467,355.487
			c-2.979,2.995-7.032,4.675-11.256,4.664h-1.856l-8-32h9.656c4.394,0.029,8.586,1.849,11.608,5.04
			C253.608,339.44,253.54,349.319,247.467,355.487z M320.347,213.151c-12.436,36.669-30.764,71.066-54.264,101.84l-6.152,8.136
			c-0.368-0.408-0.632-0.88-1.016-1.28c-6.02-6.181-14.276-9.676-22.904-9.696h-13.656l-25.48-102.072l14.496-10.272
			c30.973,13.256,66.462,10.587,95.104-7.152l16.8,11.104C322.723,205.759,321.835,208.703,320.347,213.151z"/>
	</g>
</g>
<g>
</g>
<g>
</g>
<g>
</g>
<g>
</g>
<g>
</g>
<g>
</g>
<g>
</g>
<g>
</g>
<g>
</g>
<g>
</g>
<g>
</g>
<g>
</g>
<g>
</g>
<g>
</g>
<g>
</g>
</svg>
