<svg xmlns="http://www.w3.org/2000/svg" xmlns:xlink="http://www.w3.org/1999/xlink" version="1.1" x="0px" y="0px" viewBox="0 0 100 100" enable-background="new 0 0 100 100" xml:space="preserve"><g><path d="M82.493,82.263c-0.832-1.101-2.4-1.318-3.502-0.485c0,0-9.262,7.009-9.262,7.009c-1.328-2.294-2.637-4.601-3.991-6.879   c-1.559-2.622-1.441-6.003-0.736-8.87c0.354-1.436,1.992-7.445,2.389-7.607c0,0,9.887-4.005,9.887-4.005   c1.28-0.518,1.897-1.976,1.378-3.256c-0.518-1.279-1.975-1.896-3.255-1.378L64.4,61.25c-0.704,0.286-1.241,0.876-1.457,1.604   l-3.808,7.976c0,0,0.006,1.363-4.617-0.165c-4.623-1.528-5.189-2.555-5.189-2.555l3.72-12.442c0.348-0.998,0.217-2.102-0.355-2.991   l-8.008-12.453c-1.026-1.597-3.155-2.058-4.75-1.032c-1.597,1.026-2.058,3.153-1.032,4.75l7.101,11.043   c0,0-4.044,9.989-4.101,9.982l-5.108-9.639c-0.307-0.778-0.887-1.417-1.631-1.798l-13.161-6.733   c-1.69-0.864-3.761-0.195-4.625,1.495c-0.865,1.69-0.195,3.761,1.495,4.625c0,0,12.006,6.142,12.006,6.142   c1.377,3.488,2.755,6.977,4.132,10.465c0.733,1.857,1.273,4.097,2.602,5.583c4.14,4.627,10.076,5.847,15.751,7.615   c2.878,0.897,4.507,0.543,7.385,1.44l6.07,9.577c0.359,0.62,0.967,1.056,1.669,1.198c0.164,0.033,0.33,0.049,0.494,0.049   c0.54,0,1.07-0.175,1.509-0.507l11.517-8.716C83.109,84.931,83.326,83.363,82.493,82.263z"></path><circle cx="71.651" cy="76.055" r="5.808"></circle></g><path d="M28.955,43.531c-0.345,0-0.625-0.243-0.625-0.544V17.263c0-0.3,0.28-0.544,0.625-0.544c0.345,0,0.625,0.243,0.625,0.544  v25.725C29.58,43.287,29.3,43.531,28.955,43.531z"></path><path d="M59.113,37.866c-0.345,0-0.625-0.44-0.625-0.982V15.382c0-0.542,0.28-0.982,0.625-0.982s0.625,0.44,0.625,0.982v21.502  C59.738,37.426,59.459,37.866,59.113,37.866z"></path><path d="M54.778,43.845c-0.345,0-0.625-0.28-0.625-0.625V5.638c0-0.345,0.28-0.625,0.625-0.625s0.625,0.28,0.625,0.625V43.22  C55.403,43.565,55.124,43.845,54.778,43.845z"></path><path d="M71.651,53.352c-0.345,0-0.625-0.273-0.625-0.61V28.047c0-0.337,0.28-0.61,0.625-0.61c0.345,0,0.625,0.273,0.625,0.61  v24.695C72.276,53.079,71.997,53.352,71.651,53.352z"></path></svg>