<svg xmlns="http://www.w3.org/2000/svg" xmlns:xlink="http://www.w3.org/1999/xlink" version="1.1" x="0px" y="0px" xml:space="preserve"><path d="M9.97,8.94L10,8.9L8.64,7.44L8.6,7.48C8.1,7.94,7.62,8.43,7.17,8.93L7.13,8.89v0.09L7.11,9l1.49,1.34l0.03-0.04  C9.06,9.83,9.51,9.37,9.97,8.94z"></path><path d="M5.84,14.18c0.32-0.56,0.66-1.11,1.01-1.62l0.03-0.04l-1.65-1.14l-0.02,0.04c-0.39,0.56-0.75,1.14-1.09,1.73l-0.03-0.02  l-0.01,0.11l1.74,0.98L5.84,14.18z"></path><path d="M2.74,16.01c-0.26,0.64-0.49,1.3-0.7,1.97l-0.01,0.05l1.86,0.57l0.07,0.02V18.56c0.18-0.6,0.39-1.211,0.63-1.8l0.02-0.05  l-1.85-0.74L2.74,16.01z"></path><path d="M25,1c-2.872,0-5.68,0.502-8.348,1.492l0.696,1.875C19.792,3.46,22.367,3,25,3c12.131,0,22,9.869,22,22s-9.869,22-22,22  C12.869,47,3,37.131,3,25c0-0.625,0.028-1.253,0.08-1.867l0.08,0.007l-0.08-0.08c0.06-0.64,0.14-1.27,0.25-1.87l0.01-0.05L1.37,20.8  l-0.01,0.05c-0.12,0.67-0.21,1.37-0.27,2.06l-0.01,0.05l0.008,0.001C1.031,23.632,1,24.318,1,25c0,13.233,10.767,24,24,24  c13.233,0,24-10.767,24-24S38.233,1,25,1z"></path><path d="M19,33h-2v2h16v-2h-2v-3.414L26.414,25L31,20.414V17h2v-2H17v2h2v3.414L23.586,25L19,29.586V33z M21,19.586V17h8v2.586l-4,4  L21,19.586z M25,26.414l4,4V33h-8v-2.586L25,26.414z"></path></svg>