<svg data-bbox="27.026 29.241 145.948 144" viewBox="0 0 200 200" height="200" width="200" xmlns="http://www.w3.org/2000/svg" data-name="Layer 1" data-type="tint">
    <g>
        <path d="M153.806 153.176l19.168-35.587-11.889-6.4a61.8 61.8 0 0 0-.428-22.281l11.62-6.859-20.547-34.813-11.663 6.884a61.894 61.894 0 0 0-19.856-11.368V29.241H79.789v13.511a61.957 61.957 0 0 0-21.677 12.972l-11.918-6.419-19.168 35.587 11.889 6.4a61.8 61.8 0 0 0 .428 22.281l-11.62 6.859 20.547 34.813 11.663-6.884a61.894 61.894 0 0 0 19.856 11.368v13.512h40.422v-13.512a61.942 61.942 0 0 0 21.677-12.972zM100 137.872a36.632 36.632 0 1 1 36.632-36.631A36.674 36.674 0 0 1 100 137.872z"/>
    </g>
</svg>
